<svg width="23.532" xmlns="http://www.w3.org/2000/svg" height="23.532" viewBox="0 0 23.532 23.532" xmlns:xlink="http://www.w3.org/1999/xlink" enable-background="new 0 0 23.532 23.532">
<path d="m11.766,0c-6.498,0-11.766,5.268-11.766,11.766s5.268,11.766 11.766,11.766c6.498,0 11.766-5.268 11.766-11.766s-5.268-11.766-11.766-11.766zm5.981,16.433h-11.964c-.368,0-.667-.298-.667-.667 0-.368 .299-.667 .667-.667h11.964c.368,0 .667,.298 .667,.667 0,.368-.298,.667-.667,.667zm0-4h-11.964c-.368,0-.667-.298-.667-.667 0-.368 .299-.667 .667-.667h11.964c.368,0 .667,.298 .667,.667 0,.368-.298,.667-.667,.667zm0-4h-11.964c-.368,0-.667-.298-.667-.667 0-.368 .299-.667 .667-.667h11.964c.368,0 .667,.298 .667,.667 0,.368-.298,.667-.667,.667z"/>
</svg>
